<svg id="Capa_1" data-name="Capa 1" xmlns="http://www.w3.org/2000/svg" xmlns:xlink="http://www.w3.org/1999/xlink" viewBox="0 0 196 54"><defs><style>.cls-1{fill:#960000;}.cls-2{clip-path:url(#clip-path);}.cls-3{clip-path:url(#clip-path-2);}.cls-4{clip-path:url(#clip-path-3);}.cls-5{clip-path:url(#clip-path-4);}.cls-6{fill:#f7a81f;}.cls-7{fill:url(#Degradado_sin_nombre_150);}</style><clipPath id="clip-path"><path class="cls-1" d="M77.28,22.17a.4.4,0,0,1-.15.29.65.65,0,0,1-.39.11h-3a.62.62,0,0,1-.33-.07.71.71,0,0,1-.21-.26l-4.07-7.92-2.73,2.17L65,22a.61.61,0,0,1-.64.51H61.55c-.28,0-.41-.12-.41-.35a.94.94,0,0,1,0-.16L65.41,5a.72.72,0,0,1,.22-.37A.6.6,0,0,1,66,4.46h2.82c.28,0,.42.12.41.35a.94.94,0,0,1,0,.16l-1.66,6.5,8.26-6.71a1,1,0,0,1,.7-.3h4c.24,0,.37.08.36.24a.58.58,0,0,1-.23.39L72,12l5.19,10A.42.42,0,0,1,77.28,22.17Z"/></clipPath><clipPath id="clip-path-2"><path class="cls-1" d="M91.55,9.51h2.38q.36,0,.36.3a.64.64,0,0,1,0,.15l-3,12.16a.53.53,0,0,1-.55.45H88.3a.37.37,0,0,1-.41-.37l.18-1.51a7.79,7.79,0,0,1-2.48,1.73A5.08,5.08,0,0,1,78.85,20a7.78,7.78,0,0,1,.57-6.39,8.18,8.18,0,0,1,4-3.79c1.19-.59,5.12-1.52,6.91,1.68L91,9.87A.64.64,0,0,1,91.55,9.51Zm-2.31,6.55a4.25,4.25,0,0,0,.12-.9,3.4,3.4,0,0,0-.31-1.56,2.43,2.43,0,0,0-1-1,2.92,2.92,0,0,0-1.51-.38,3.92,3.92,0,0,0-1.93.51A5.15,5.15,0,0,0,83,14.08a5.45,5.45,0,0,0-.92,2A4.67,4.67,0,0,0,82,17a3.12,3.12,0,0,0,.29,1.5,2.35,2.35,0,0,0,.95,1,3.31,3.31,0,0,0,1.49.36A4.44,4.44,0,0,0,89.24,16.06Z"/></clipPath><clipPath id="clip-path-3"><path class="cls-1" d="M96.71,22.56H94q-.41,0-.39-.33a.8.8,0,0,1,0-.16L98,4.93a.71.71,0,0,1,.21-.37.61.61,0,0,1,.39-.13h2.71c.27,0,.4.12.4.36a.44.44,0,0,1,0,.13L97.33,22.07A.59.59,0,0,1,96.71,22.56Z"/></clipPath><clipPath id="clip-path-4"><path class="cls-1" d="M99.37,26.33l1.06-1.68a.61.61,0,0,1,.31-.27.67.67,0,0,1,.37,0l.07,0c1.31.6,2.4.14,3.67-2.06L102.7,10.05a.28.28,0,0,1,0-.1.4.4,0,0,1,.14-.31.51.51,0,0,1,.34-.11H106a.36.36,0,0,1,.42.36L107.54,18l5-8a.65.65,0,0,1,.61-.37H116a.37.37,0,0,1,.25.07.19.19,0,0,1,.08.18.53.53,0,0,1-.1.27l-9,14.15a3.62,3.62,0,0,1-.26.38,8.31,8.31,0,0,1-2.77,2.52,4.67,4.67,0,0,1-4.89-.21C99.12,26.72,99.32,26.42,99.37,26.33Z"/></clipPath><linearGradient id="Degradado_sin_nombre_150" x1="37.95" y1="45.28" x2="18.34" y2="10.83" gradientUnits="userSpaceOnUse"><stop offset="0.01" stop-color="#691620"/><stop offset="0.26" stop-color="#871723"/><stop offset="0.52" stop-color="#ab1926"/><stop offset="0.71" stop-color="#971824"/><stop offset="0.99" stop-color="#711621"/></linearGradient></defs><path class="cls-1" d="M77.28,22.17a.4.4,0,0,1-.15.29.65.65,0,0,1-.39.11h-3a.62.62,0,0,1-.33-.07.71.71,0,0,1-.21-.26l-4.07-7.92-2.73,2.17L65,22a.61.61,0,0,1-.64.51H61.55c-.28,0-.41-.12-.41-.35a.94.94,0,0,1,0-.16L65.41,5a.72.72,0,0,1,.22-.37A.6.6,0,0,1,66,4.46h2.82c.28,0,.42.12.41.35a.94.94,0,0,1,0,.16l-1.66,6.5,8.26-6.71a1,1,0,0,1,.7-.3h4c.24,0,.37.08.36.24a.58.58,0,0,1-.23.39L72,12l5.19,10A.42.42,0,0,1,77.28,22.17Z"/><g class="cls-2"><rect class="cls-1" x="61.14" y="22.36" width="19.74" height="0.21"/><rect class="cls-1" x="61.14" y="22.07" width="19.74" height="0.29"/><rect class="cls-1" x="61.14" y="21.78" width="19.74" height="0.29"/><rect class="cls-1" x="61.14" y="21.49" width="19.74" height="0.29"/><rect class="cls-1" x="61.14" y="21.19" width="19.74" height="0.29"/><rect class="cls-1" x="61.14" y="20.9" width="19.74" height="0.29"/><rect class="cls-1" x="61.14" y="20.61" width="19.74" height="0.29"/><rect class="cls-1" x="61.14" y="20.32" width="19.74" height="0.29"/><rect class="cls-1" x="61.14" y="20.03" width="19.74" height="0.29"/><rect class="cls-1" x="61.14" y="19.73" width="19.74" height="0.29"/><rect class="cls-1" x="61.14" y="19.44" width="19.74" height="0.29"/><rect class="cls-1" x="61.14" y="19.15" width="19.74" height="0.29"/><rect class="cls-1" x="61.14" y="18.86" width="19.74" height="0.29"/><rect class="cls-1" x="61.14" y="18.57" width="19.74" height="0.29"/><rect class="cls-1" x="61.14" y="18.27" width="19.74" height="0.29"/><rect class="cls-1" x="61.14" y="17.98" width="19.74" height="0.29"/><rect class="cls-1" x="61.14" y="17.69" width="19.74" height="0.29"/><rect class="cls-1" x="61.14" y="17.4" width="19.74" height="0.29"/><rect class="cls-1" x="61.14" y="17.1" width="19.74" height="0.29"/><rect class="cls-1" x="61.14" y="16.81" width="19.74" height="0.29"/><rect class="cls-1" x="61.14" y="16.52" width="19.74" height="0.29"/><rect class="cls-1" x="61.14" y="16.23" width="19.74" height="0.29"/><rect class="cls-1" x="61.14" y="15.94" width="19.74" height="0.29"/><rect class="cls-1" x="61.14" y="15.64" width="19.74" height="0.29"/><rect class="cls-1" x="61.14" y="15.35" width="19.74" height="0.29"/><rect class="cls-1" x="61.14" y="15.06" width="19.74" height="0.29"/><rect class="cls-1" x="61.14" y="14.77" width="19.74" height="0.29"/><rect class="cls-1" x="61.14" y="14.48" width="19.74" height="0.29"/><rect class="cls-1" x="61.14" y="14.18" width="19.74" height="0.29"/><rect class="cls-1" x="61.14" y="13.89" width="19.74" height="0.29"/><rect class="cls-1" x="61.14" y="13.6" width="19.74" height="0.29"/><rect class="cls-1" x="61.14" y="13.31" width="19.74" height="0.29"/><rect class="cls-1" x="61.14" y="13.02" width="19.74" height="0.29"/><rect class="cls-1" x="61.14" y="12.72" width="19.74" height="0.29"/><rect class="cls-1" x="61.14" y="12.43" width="19.74" height="0.29"/><rect class="cls-1" x="61.14" y="12.14" width="19.74" height="0.29"/><rect class="cls-1" x="61.14" y="11.85" width="19.74" height="0.29"/><rect class="cls-1" x="61.14" y="11.56" width="19.74" height="0.29"/><rect class="cls-1" x="61.14" y="11.26" width="19.74" height="0.29"/><rect class="cls-1" x="61.14" y="10.97" width="19.74" height="0.29"/><rect class="cls-1" x="61.14" y="10.68" width="19.74" height="0.29"/><rect class="cls-1" x="61.14" y="10.39" width="19.74" height="0.29"/><rect class="cls-1" x="61.14" y="10.1" width="19.74" height="0.29"/><rect class="cls-1" x="61.14" y="9.8" width="19.74" height="0.29"/><rect class="cls-1" x="61.14" y="9.51" width="19.74" height="0.29"/><rect class="cls-1" x="61.14" y="9.22" width="19.74" height="0.29"/><rect class="cls-1" x="61.14" y="8.93" width="19.74" height="0.29"/><rect class="cls-1" x="61.14" y="8.63" width="19.74" height="0.29"/><rect class="cls-1" x="61.14" y="8.34" width="19.74" height="0.29"/><rect class="cls-1" x="61.14" y="8.05" width="19.74" height="0.29"/><rect class="cls-1" x="61.14" y="7.76" width="19.74" height="0.29"/><rect class="cls-1" x="61.14" y="7.47" width="19.74" height="0.29"/><rect class="cls-1" x="61.14" y="7.17" width="19.74" height="0.29"/><rect class="cls-1" x="61.14" y="6.88" width="19.74" height="0.29"/><rect class="cls-1" x="61.14" y="6.59" width="19.74" height="0.29"/><rect class="cls-1" x="61.14" y="6.3" width="19.74" height="0.29"/><rect class="cls-1" x="61.14" y="6.01" width="19.74" height="0.29"/><rect class="cls-1" x="61.14" y="5.71" width="19.74" height="0.29"/><rect class="cls-1" x="61.14" y="5.42" width="19.74" height="0.29"/><rect class="cls-1" x="61.14" y="4.46" width="19.74" height="0.96"/></g><path class="cls-1" d="M91.55,9.51h2.38q.36,0,.36.3a.64.64,0,0,1,0,.15l-3,12.16a.53.53,0,0,1-.55.45H88.3a.37.37,0,0,1-.41-.37l.18-1.51a7.79,7.79,0,0,1-2.48,1.73A5.08,5.08,0,0,1,78.85,20a7.78,7.78,0,0,1,.57-6.39,8.18,8.18,0,0,1,4-3.79c1.19-.59,5.12-1.52,6.91,1.68L91,9.87A.64.64,0,0,1,91.55,9.51Zm-2.31,6.55a4.25,4.25,0,0,0,.12-.9,3.4,3.4,0,0,0-.31-1.56,2.43,2.43,0,0,0-1-1,2.92,2.92,0,0,0-1.51-.38,3.92,3.92,0,0,0-1.93.51A5.15,5.15,0,0,0,83,14.08a5.45,5.45,0,0,0-.92,2A4.67,4.67,0,0,0,82,17a3.12,3.12,0,0,0,.29,1.5,2.35,2.35,0,0,0,.95,1,3.31,3.31,0,0,0,1.49.36A4.44,4.44,0,0,0,89.24,16.06Z"/><g class="cls-3"><rect class="cls-1" x="81.98" y="19.74" width="7.4" height="0.2"/><rect class="cls-1" x="81.98" y="19.45" width="7.4" height="0.29"/><rect class="cls-1" x="81.98" y="19.16" width="7.4" height="0.29"/><rect class="cls-1" x="81.98" y="18.87" width="7.4" height="0.29"/><rect class="cls-1" x="81.98" y="18.58" width="7.4" height="0.29"/><rect class="cls-1" x="81.98" y="18.28" width="7.4" height="0.29"/><rect class="cls-1" x="81.98" y="17.99" width="7.4" height="0.29"/><rect class="cls-1" x="81.98" y="17.7" width="7.4" height="0.29"/><rect class="cls-1" x="81.98" y="17.41" width="7.4" height="0.29"/><rect class="cls-1" x="81.98" y="17.12" width="7.4" height="0.29"/><rect class="cls-1" x="81.98" y="16.82" width="7.4" height="0.29"/><rect class="cls-1" x="81.98" y="16.53" width="7.4" height="0.29"/><rect class="cls-1" x="81.98" y="16.24" width="7.4" height="0.29"/><rect class="cls-1" x="81.98" y="15.95" width="7.4" height="0.29"/><rect class="cls-1" x="81.98" y="15.66" width="7.4" height="0.29"/><rect class="cls-1" x="81.98" y="15.36" width="7.4" height="0.29"/><rect class="cls-1" x="81.98" y="15.07" width="7.4" height="0.29"/><rect class="cls-1" x="81.98" y="14.78" width="7.4" height="0.29"/><rect class="cls-1" x="81.98" y="14.49" width="7.4" height="0.29"/><rect class="cls-1" x="81.98" y="14.2" width="7.4" height="0.29"/><rect class="cls-1" x="81.98" y="13.9" width="7.4" height="0.29"/><rect class="cls-1" x="81.98" y="13.61" width="7.4" height="0.29"/><rect class="cls-1" x="81.98" y="13.32" width="7.4" height="0.29"/><rect class="cls-1" x="81.98" y="13.03" width="7.4" height="0.29"/><rect class="cls-1" x="81.98" y="12.73" width="7.4" height="0.29"/><rect class="cls-1" x="81.98" y="12.44" width="7.4" height="0.29"/><rect class="cls-1" x="81.98" y="12.17" width="7.4" height="0.27"/><rect class="cls-1" x="77.93" y="22.37" width="16.37" height="1.7"/><rect class="cls-1" x="77.93" y="22.08" width="16.37" height="0.29"/><rect class="cls-1" x="77.93" y="21.79" width="16.37" height="0.29"/><rect class="cls-1" x="77.93" y="21.5" width="16.37" height="0.29"/><rect class="cls-1" x="77.93" y="21.2" width="16.37" height="0.29"/><rect class="cls-1" x="77.93" y="20.91" width="16.37" height="0.29"/><rect class="cls-1" x="77.93" y="20.62" width="16.37" height="0.29"/><rect class="cls-1" x="77.93" y="20.33" width="16.37" height="0.29"/><rect class="cls-1" x="77.93" y="20.04" width="16.37" height="0.29"/><rect class="cls-1" x="77.93" y="19.74" width="16.37" height="0.29"/><rect class="cls-1" x="77.93" y="19.45" width="16.37" height="0.29"/><rect class="cls-1" x="77.93" y="19.16" width="16.37" height="0.29"/><rect class="cls-1" x="77.93" y="18.87" width="16.37" height="0.29"/><rect class="cls-1" x="77.93" y="18.58" width="16.37" height="0.29"/><rect class="cls-1" x="77.93" y="18.28" width="16.37" height="0.29"/><rect class="cls-1" x="77.93" y="17.99" width="16.37" height="0.29"/><rect class="cls-1" x="77.93" y="17.7" width="16.37" height="0.29"/><rect class="cls-1" x="77.93" y="17.41" width="16.37" height="0.29"/><rect class="cls-1" x="77.93" y="17.12" width="16.37" height="0.29"/><rect class="cls-1" x="77.93" y="16.82" width="16.37" height="0.29"/><rect class="cls-1" x="77.93" y="16.53" width="16.37" height="0.29"/><rect class="cls-1" x="77.93" y="16.24" width="16.37" height="0.29"/><rect class="cls-1" x="77.93" y="15.95" width="16.37" height="0.29"/><rect class="cls-1" x="77.93" y="15.66" width="16.37" height="0.29"/><rect class="cls-1" x="77.93" y="15.36" width="16.37" height="0.29"/><rect class="cls-1" x="77.93" y="15.07" width="16.37" height="0.29"/><rect class="cls-1" x="77.93" y="14.78" width="16.37" height="0.29"/><rect class="cls-1" x="77.93" y="14.49" width="16.37" height="0.29"/><rect class="cls-1" x="77.93" y="14.2" width="16.37" height="0.29"/><rect class="cls-1" x="77.93" y="13.9" width="16.37" height="0.29"/><rect class="cls-1" x="77.93" y="13.61" width="16.37" height="0.29"/><rect class="cls-1" x="77.93" y="13.32" width="16.37" height="0.29"/><rect class="cls-1" x="77.93" y="13.03" width="16.37" height="0.29"/><rect class="cls-1" x="77.93" y="12.73" width="16.37" height="0.29"/><rect class="cls-1" x="77.93" y="12.44" width="16.37" height="0.29"/><rect class="cls-1" x="77.93" y="12.15" width="16.37" height="0.29"/><rect class="cls-1" x="77.93" y="11.86" width="16.37" height="0.29"/><rect class="cls-1" x="77.93" y="11.57" width="16.37" height="0.29"/><rect class="cls-1" x="77.93" y="11.27" width="16.37" height="0.29"/><rect class="cls-1" x="77.93" y="10.98" width="16.37" height="0.29"/><rect class="cls-1" x="77.93" y="10.69" width="16.37" height="0.29"/><rect class="cls-1" x="77.93" y="10.4" width="16.37" height="0.29"/><rect class="cls-1" x="77.93" y="10.11" width="16.37" height="0.29"/><rect class="cls-1" x="77.93" y="9.81" width="16.37" height="0.29"/><rect class="cls-1" x="77.93" y="9.52" width="16.37" height="0.29"/><rect class="cls-1" x="77.93" y="9.23" width="16.37" height="0.29"/><rect class="cls-1" x="77.93" y="8.94" width="16.37" height="0.29"/><rect class="cls-1" x="77.93" y="8.65" width="16.37" height="0.29"/><rect class="cls-1" x="77.93" y="8.35" width="16.37" height="0.29"/><rect class="cls-1" x="77.93" y="8.28" width="16.37" height="0.07"/></g><path class="cls-1" d="M96.71,22.56H94q-.41,0-.39-.33a.8.8,0,0,1,0-.16L98,4.93a.71.71,0,0,1,.21-.37.61.61,0,0,1,.39-.13h2.71c.27,0,.4.12.4.36a.44.44,0,0,1,0,.13L97.33,22.07A.59.59,0,0,1,96.71,22.56Z"/><g class="cls-4"><rect class="cls-1" x="93.64" y="22.36" width="8.02" height="0.21"/><rect class="cls-1" x="93.64" y="22.06" width="8.02" height="0.29"/><rect class="cls-1" x="93.64" y="21.77" width="8.02" height="0.29"/><rect class="cls-1" x="93.64" y="21.48" width="8.02" height="0.29"/><rect class="cls-1" x="93.64" y="21.19" width="8.02" height="0.29"/><rect class="cls-1" x="93.64" y="20.89" width="8.02" height="0.29"/><rect class="cls-1" x="93.64" y="20.6" width="8.02" height="0.29"/><rect class="cls-1" x="93.64" y="20.31" width="8.02" height="0.29"/><rect class="cls-1" x="93.64" y="20.02" width="8.02" height="0.29"/><rect class="cls-1" x="93.64" y="19.73" width="8.02" height="0.29"/><rect class="cls-1" x="93.64" y="19.43" width="8.02" height="0.29"/><rect class="cls-1" x="93.64" y="19.14" width="8.02" height="0.29"/><rect class="cls-1" x="93.64" y="18.85" width="8.02" height="0.29"/><rect class="cls-1" x="93.64" y="18.56" width="8.02" height="0.29"/><rect class="cls-1" x="93.64" y="18.27" width="8.02" height="0.29"/><rect class="cls-1" x="93.64" y="17.97" width="8.02" height="0.29"/><rect class="cls-1" x="93.64" y="17.68" width="8.02" height="0.29"/><rect class="cls-1" x="93.64" y="17.39" width="8.02" height="0.29"/><rect class="cls-1" x="93.64" y="17.1" width="8.02" height="0.29"/><rect class="cls-1" x="93.64" y="16.81" width="8.02" height="0.29"/><rect class="cls-1" x="93.64" y="16.51" width="8.02" height="0.29"/><rect class="cls-1" x="93.64" y="16.22" width="8.02" height="0.29"/><rect class="cls-1" x="93.64" y="15.93" width="8.02" height="0.29"/><rect class="cls-1" x="93.64" y="15.64" width="8.02" height="0.29"/><rect class="cls-1" x="93.64" y="15.35" width="8.02" height="0.29"/><rect class="cls-1" x="93.64" y="15.05" width="8.02" height="0.29"/><rect class="cls-1" x="93.64" y="14.76" width="8.02" height="0.29"/><rect class="cls-1" x="93.64" y="14.47" width="8.02" height="0.29"/><rect class="cls-1" x="93.64" y="14.18" width="8.02" height="0.29"/><rect class="cls-1" x="93.64" y="13.89" width="8.02" height="0.29"/><rect class="cls-1" x="93.64" y="13.59" width="8.02" height="0.29"/><rect class="cls-1" x="93.64" y="13.3" width="8.02" height="0.29"/><rect class="cls-1" x="93.64" y="13.01" width="8.02" height="0.29"/><rect class="cls-1" x="93.64" y="12.72" width="8.02" height="0.29"/><rect class="cls-1" x="93.64" y="12.43" width="8.02" height="0.29"/><rect class="cls-1" x="93.64" y="12.13" width="8.02" height="0.29"/><rect class="cls-1" x="93.64" y="11.84" width="8.02" height="0.29"/><rect class="cls-1" x="93.64" y="11.55" width="8.02" height="0.29"/><rect class="cls-1" x="93.64" y="11.26" width="8.02" height="0.29"/><rect class="cls-1" x="93.64" y="10.96" width="8.02" height="0.29"/><rect class="cls-1" x="93.64" y="10.67" width="8.02" height="0.29"/><rect class="cls-1" x="93.64" y="10.38" width="8.02" height="0.29"/><rect class="cls-1" x="93.64" y="10.09" width="8.02" height="0.29"/><rect class="cls-1" x="93.64" y="9.8" width="8.02" height="0.29"/><rect class="cls-1" x="93.64" y="9.5" width="8.02" height="0.29"/><rect class="cls-1" x="93.64" y="9.21" width="8.02" height="0.29"/><rect class="cls-1" x="93.64" y="8.92" width="8.02" height="0.29"/><rect class="cls-1" x="93.64" y="8.63" width="8.02" height="0.29"/><rect class="cls-1" x="93.64" y="8.34" width="8.02" height="0.29"/><rect class="cls-1" x="93.64" y="8.04" width="8.02" height="0.29"/><rect class="cls-1" x="93.64" y="7.75" width="8.02" height="0.29"/><rect class="cls-1" x="93.64" y="7.46" width="8.02" height="0.29"/><rect class="cls-1" x="93.64" y="7.17" width="8.02" height="0.29"/><rect class="cls-1" x="93.64" y="6.88" width="8.02" height="0.29"/><rect class="cls-1" x="93.64" y="6.58" width="8.02" height="0.29"/><rect class="cls-1" x="93.64" y="6.29" width="8.02" height="0.29"/><rect class="cls-1" x="93.64" y="6" width="8.02" height="0.29"/><rect class="cls-1" x="93.64" y="5.71" width="8.02" height="0.29"/><rect class="cls-1" x="93.64" y="5.42" width="8.02" height="0.29"/><rect class="cls-1" x="93.64" y="4.43" width="8.02" height="0.99"/></g><path class="cls-1" d="M99.37,26.33l1.06-1.68a.61.61,0,0,1,.31-.27.67.67,0,0,1,.37,0l.07,0c1.31.6,2.4.14,3.67-2.06L102.7,10.05a.28.28,0,0,1,0-.1.4.4,0,0,1,.14-.31.51.51,0,0,1,.34-.11H106a.36.36,0,0,1,.42.36L107.54,18l5-8a.65.65,0,0,1,.61-.37H116a.37.37,0,0,1,.25.07.19.19,0,0,1,.08.18.53.53,0,0,1-.1.27l-9,14.15a3.62,3.62,0,0,1-.26.38,8.31,8.31,0,0,1-2.77,2.52,4.67,4.67,0,0,1-4.89-.21C99.12,26.72,99.32,26.42,99.37,26.33Z"/><g class="cls-5"><rect class="cls-1" x="99.12" y="22.37" width="17.22" height="5.64"/><rect class="cls-1" x="99.12" y="22.08" width="17.22" height="0.29"/><rect class="cls-1" x="99.12" y="21.79" width="17.22" height="0.29"/><rect class="cls-1" x="99.12" y="21.5" width="17.22" height="0.29"/><rect class="cls-1" x="99.12" y="21.2" width="17.22" height="0.29"/><rect class="cls-1" x="99.12" y="20.91" width="17.22" height="0.29"/><rect class="cls-1" x="99.12" y="20.62" width="17.22" height="0.29"/><rect class="cls-1" x="99.12" y="20.33" width="17.22" height="0.29"/><rect class="cls-1" x="99.12" y="20.04" width="17.22" height="0.29"/><rect class="cls-1" x="99.12" y="19.74" width="17.22" height="0.29"/><rect class="cls-1" x="99.12" y="19.45" width="17.22" height="0.29"/><rect class="cls-1" x="99.12" y="19.16" width="17.22" height="0.29"/><rect class="cls-1" x="99.12" y="18.87" width="17.22" height="0.29"/><rect class="cls-1" x="99.12" y="18.58" width="17.22" height="0.29"/><rect class="cls-1" x="99.12" y="18.28" width="17.22" height="0.29"/><rect class="cls-1" x="99.12" y="17.99" width="17.22" height="0.29"/><rect class="cls-1" x="99.12" y="17.7" width="17.22" height="0.29"/><rect class="cls-1" x="99.12" y="17.41" width="17.22" height="0.29"/><rect class="cls-1" x="99.12" y="17.12" width="17.22" height="0.29"/><rect class="cls-1" x="99.12" y="16.82" width="17.22" height="0.29"/><rect class="cls-1" x="99.12" y="16.53" width="17.22" height="0.29"/><rect class="cls-1" x="99.12" y="16.24" width="17.22" height="0.29"/><rect class="cls-1" x="99.12" y="15.95" width="17.22" height="0.29"/><rect class="cls-1" x="99.12" y="15.66" width="17.22" height="0.29"/><rect class="cls-1" x="99.12" y="15.36" width="17.22" height="0.29"/><rect class="cls-1" x="99.12" y="15.07" width="17.22" height="0.29"/><rect class="cls-1" x="99.12" y="14.78" width="17.22" height="0.29"/><rect class="cls-1" x="99.12" y="14.49" width="17.22" height="0.29"/><rect class="cls-1" x="99.12" y="14.2" width="17.22" height="0.29"/><rect class="cls-1" x="99.12" y="13.9" width="17.22" height="0.29"/><rect class="cls-1" x="99.12" y="13.61" width="17.22" height="0.29"/><rect class="cls-1" x="99.12" y="13.32" width="17.22" height="0.29"/><rect class="cls-1" x="99.12" y="13.03" width="17.22" height="0.29"/><rect class="cls-1" x="99.12" y="12.73" width="17.22" height="0.29"/><rect class="cls-1" x="99.12" y="12.44" width="17.22" height="0.29"/><rect class="cls-1" x="99.12" y="12.15" width="17.22" height="0.29"/><rect class="cls-1" x="99.12" y="11.86" width="17.22" height="0.29"/><rect class="cls-1" x="99.12" y="11.57" width="17.22" height="0.29"/><rect class="cls-1" x="99.12" y="11.27" width="17.22" height="0.29"/><rect class="cls-1" x="99.12" y="10.98" width="17.22" height="0.29"/><rect class="cls-1" x="99.12" y="10.69" width="17.22" height="0.29"/><rect class="cls-1" x="99.12" y="10.4" width="17.22" height="0.29"/><rect class="cls-1" x="99.12" y="10.11" width="17.22" height="0.29"/><rect class="cls-1" x="99.12" y="9.81" width="17.22" height="0.29"/><rect class="cls-1" x="99.12" y="9.53" width="17.22" height="0.28"/></g><path class="cls-6" d="M94.13,44.06a6.34,6.34,0,0,1-2.57-2.51A6.71,6.71,0,0,1,90.73,38,9,9,0,0,1,92,33.73a9.76,9.76,0,0,1,3.35-3.41A9,9,0,0,1,100.2,29a8.22,8.22,0,0,1,2.93.48,6.46,6.46,0,0,1,2.14,1.3.49.49,0,0,1,.16.35.57.57,0,0,1-.18.36l-2.17,2.29a.47.47,0,0,1-.37.19.49.49,0,0,1-.33-.15,3.66,3.66,0,0,0-2.56-1.07,4.89,4.89,0,0,0-2.58.7,5.11,5.11,0,0,0-1.79,1.82,4.9,4.9,0,0,0-.69,2.4,3.22,3.22,0,0,0,.47,1.8,3.59,3.59,0,0,0,1.37,1.28,3.78,3.78,0,0,0,1.84.46A4.78,4.78,0,0,0,99.76,41a5.06,5.06,0,0,0,1.31-.57.78.78,0,0,1,.32-.1.47.47,0,0,1,.39.27l1.13,2.13A.6.6,0,0,1,103,43a.63.63,0,0,1-.31.49,8.77,8.77,0,0,1-2.29,1.1,7.76,7.76,0,0,1-2.32.38A8,8,0,0,1,94.13,44.06Z"/><path class="cls-6" d="M121.35,31.39a5.61,5.61,0,0,1,.31,2.92,19.35,19.35,0,0,1-.37,1.9l-1.8,7.38a.61.61,0,0,1-.63.55h-2.7c-.27,0-.41-.12-.4-.37a1.05,1.05,0,0,1,0-.18l1.67-6.91c.08-.4.25-1.07.29-1.41a2.26,2.26,0,0,0-.44-2.12,2.37,2.37,0,0,0-1.91-.61,5.17,5.17,0,0,0-2.25.64,3,3,0,0,0-1,1,7.22,7.22,0,0,0-.81,2.32l-1.7,7.11a.62.62,0,0,1-.64.55h-3.12c-.28,0-.41-.12-.41-.37a1.05,1.05,0,0,1,0-.18l4.24-19.37a.61.61,0,0,1,.63-.55l3.56,0c.28,0,.42.13.41.38a1.5,1.5,0,0,1,0,.18l-1.53,6.28a6.28,6.28,0,0,1,3.82-1.6C119.53,28.84,120.81,30.32,121.35,31.39Z"/><path class="cls-6" d="M138.35,29.26h2.16c.28,0,.42.11.41.34a1,1,0,0,1,0,.17L137.42,44a.59.59,0,0,1-.62.5h-2.24a.42.42,0,0,1-.46-.41v-1a8.13,8.13,0,0,1-2.1,1.31,6.27,6.27,0,0,1-2.41.45,6.51,6.51,0,0,1-3.28-.81,5.67,5.67,0,0,1-2.2-2.25,6.37,6.37,0,0,1-.72-3.22,8.2,8.2,0,0,1,.23-1.67,10.49,10.49,0,0,1,2-4,11,11,0,0,1,3.4-2.87,8.65,8.65,0,0,1,4.1-1,5.79,5.79,0,0,1,2.43.48,3.88,3.88,0,0,1,1.61,1.28l.56-1.1A.75.75,0,0,1,138.35,29.26Zm-5.72,11.35a5.44,5.44,0,0,0,1.82-1.49A5.65,5.65,0,0,0,135.52,37a4.94,4.94,0,0,0,.13-1,3.48,3.48,0,0,0-.35-1.7,2.71,2.71,0,0,0-1.1-1.15,3.43,3.43,0,0,0-1.71-.41,4.58,4.58,0,0,0-2.18.55,5.68,5.68,0,0,0-1.79,1.53A5.55,5.55,0,0,0,127.34,38a3.3,3.3,0,0,0,.33,1.64,2.64,2.64,0,0,0,1.07,1.1,3.47,3.47,0,0,0,1.68.39A4.78,4.78,0,0,0,132.63,40.61Z"/><path class="cls-6" d="M154.59,29.6a4.1,4.1,0,0,1,1.74,1.71,5.08,5.08,0,0,1,.55,2.61,8.39,8.39,0,0,1-.23,1.64l-2,8a.59.59,0,0,1-.62.49h-2.77c-.27,0-.4-.11-.4-.33,0,0,0-.08,0-.16L152.8,36A6.2,6.2,0,0,0,153,34.8a2.3,2.3,0,0,0-.54-1.72,2.43,2.43,0,0,0-1.81-.61,4.42,4.42,0,0,0-1.93.47A5.35,5.35,0,0,0,147,34.18a3.77,3.77,0,0,0-.9,1.64l-1.89,7.78a.59.59,0,0,1-.62.49h-2.77q-.4,0-.39-.33a.94.94,0,0,1,0-.16l3.35-13.86a.6.6,0,0,1,.62-.49h2.14c.29,0,.44.13.46.4l.1,1.32a10.14,10.14,0,0,1,2.34-1.43,6.06,6.06,0,0,1,2.42-.55A5.66,5.66,0,0,1,154.59,29.6Z"/><path class="cls-6" d="M160.59,49.13A8.09,8.09,0,0,1,158.11,48a.4.4,0,0,1-.15-.31.6.6,0,0,1,.16-.36l1.69-2.29a.56.56,0,0,1,.46-.27.5.5,0,0,1,.26.08,7.76,7.76,0,0,0,1.81.72,7.47,7.47,0,0,0,2,.29,5.57,5.57,0,0,0,2.22-.44,4.44,4.44,0,0,0,1.66-1.2,4,4,0,0,0,.88-1.7l0-.12c-.51.38-1,.69-1.36.94a8.06,8.06,0,0,1-1.32.63,4.51,4.51,0,0,1-1.5.26,6.61,6.61,0,0,1-3.24-.77,5.16,5.16,0,0,1-2.12-2.12,5.88,5.88,0,0,1-.68-3,8.45,8.45,0,0,1,.21-1.58,11.08,11.08,0,0,1,1.88-4,9.53,9.53,0,0,1,3.21-2.77,8.49,8.49,0,0,1,4-1,5.83,5.83,0,0,1,2.34.5,3.92,3.92,0,0,1,1.69,1.25l.52-1a.89.89,0,0,1,.28-.3.77.77,0,0,1,.39-.11h2.23a.38.38,0,0,1,.29.1.34.34,0,0,1,.1.28c0,.06,0,.1,0,.13l-3,12.34a9.68,9.68,0,0,1-1.85,3.78,9.79,9.79,0,0,1-3.3,2.69,9.09,9.09,0,0,1-4.18,1A11.13,11.13,0,0,1,160.59,49.13ZM168,40.08a5.09,5.09,0,0,0,1.72-1.41,5.24,5.24,0,0,0,1-2,4.19,4.19,0,0,0,.13-.95,3.26,3.26,0,0,0-.33-1.61,2.62,2.62,0,0,0-1-1.1,3.29,3.29,0,0,0-1.64-.4,4.67,4.67,0,0,0-2.12.52A5.19,5.19,0,0,0,164,34.57a5.38,5.38,0,0,0-1,2.1,4.39,4.39,0,0,0-.13.94,3,3,0,0,0,.33,1.56,2.5,2.5,0,0,0,1.06,1,3.41,3.41,0,0,0,1.65.37A4.59,4.59,0,0,0,168,40.08Z"/><path class="cls-6" d="M189.9,29.69A4.85,4.85,0,0,1,192,31.81a6.18,6.18,0,0,1,.64,3.12,9.13,9.13,0,0,1-.59,3,.56.56,0,0,1-.58.4H181a3.53,3.53,0,0,0,.67,1.63A3.66,3.66,0,0,0,183,41a3.85,3.85,0,0,0,1.63.37,5.63,5.63,0,0,0,2.7-.72.62.62,0,0,1,.31-.1.42.42,0,0,1,.38.26l1.07,1.94a.52.52,0,0,1,.08.3.5.5,0,0,1-.24.4,7.68,7.68,0,0,1-2.29,1.09,8.92,8.92,0,0,1-2.45.36,7.79,7.79,0,0,1-3.82-.9,6.16,6.16,0,0,1-2.5-2.48A6.78,6.78,0,0,1,177.1,38a9.22,9.22,0,0,1,1.23-4.22,9.92,9.92,0,0,1,3.26-3.5,8.44,8.44,0,0,1,4.77-1.38A7.35,7.35,0,0,1,189.9,29.69Zm-1,5.45a2.59,2.59,0,0,0-.32-1.37,2.53,2.53,0,0,0-1-1,3.26,3.26,0,0,0-1.64-.38,4.24,4.24,0,0,0-2.57.83,5.51,5.51,0,0,0-1.76,2.17h7.33Z"/><path class="cls-6" d="M75,23.71H61.51a.72.72,0,0,0-.47.16.73.73,0,0,0-.24.43L56.12,43.53a1.29,1.29,0,0,0,0,.19c0,.26.15.39.46.39H70.29a.69.69,0,0,0,.73-.58l.75-3.12a.75.75,0,0,0,0-.17c0-.27-.15-.41-.48-.41h-7a.22.22,0,0,0-.22.22v2.51a.21.21,0,0,1-.36.15l-4.77-4.8a.22.22,0,0,1,0-.3l4.77-4.8a.21.21,0,0,1,.36.15v2.52a.22.22,0,0,0,.22.21h4.43a.19.19,0,0,1,.13.19v2.43c0,.19.2.28.31.15l4-4.64a.23.23,0,0,0,0-.29l-4-4.64c-.11-.13-.31,0-.31.15v2.43a.18.18,0,0,1-.17.2H65.14L66,28H74a.72.72,0,0,0,.47-.15.8.8,0,0,0,.24-.43l.78-3.12s0-.1,0-.16C75.51,23.86,75.35,23.71,75,23.71Z"/><path class="cls-6" d="M77.23,44.13H74a.57.57,0,0,1-.29-.06.25.25,0,0,1-.09-.19.53.53,0,0,1,.2-.35l6.75-7.05L77.65,30a.49.49,0,0,1-.06-.22.29.29,0,0,1,.15-.26.61.61,0,0,1,.38-.1h3.61a.49.49,0,0,1,.52.33l1.51,3.33,3.18-3.34a.89.89,0,0,1,.7-.32h3.27a.55.55,0,0,1,.28.06.2.2,0,0,1,.09.17.58.58,0,0,1-.2.35l-5.91,6.21,3.29,7.31a.36.36,0,0,1,.05.21.34.34,0,0,1-.15.27.61.61,0,0,1-.38.1h-3.6a.49.49,0,0,1-.52-.32L82,39.6l-4,4.19A1,1,0,0,1,77.23,44.13Z"/><path class="cls-7" d="M27.55,2.27A24.73,24.73,0,1,0,52.28,27,24.74,24.74,0,0,0,27.55,2.27ZM18.89,37.64H13l5.2-21.46h5.86l-1.25,6.54-4.28,4.15,1.93,2.81Zm10,3L20.48,26.87,35.37,13.08h9.72L29.78,26.83l9.31,13.83Z"/></svg>